
<!-- Generator: visioncortex VTracer 0.6.4 -->
<svg version="1.1" xmlns="http://www.w3.org/2000/svg" viewBox="0 0 500 500" preserveAspectRatio="xMidYMid meet">
<path d="M0 0 C165 0 330 0 500 0 C500 164.67 500 329.34 500 499 C335 499 170 499 0 499 C0 334.33 0 169.66 0 0 Z " fill="#FEFEFE" transform="translate(0,1)"/>
<path d="M0 0 C4.073 0.498 7.45 2.798 10.938 4.812 C11.635 5.21 12.332 5.607 13.051 6.017 C15.37 7.34 17.685 8.67 20 10 C23.312 11.897 26.625 13.792 29.938 15.688 C30.798 16.18 31.658 16.673 32.544 17.18 C39.903 21.389 47.291 25.546 54.688 29.688 C55.781 30.3 56.875 30.913 58.002 31.544 C62.96 34.349 62.96 34.349 68 37 C68 37.66 68 38.32 68 39 C62.611 40.347 59.864 39.906 55.255 37.193 C54.593 36.779 53.932 36.364 53.25 35.938 C51.834 35.094 50.417 34.252 49 33.41 C47.973 32.788 47.973 32.788 46.926 32.153 C44.409 30.646 41.838 29.255 39.25 27.875 C34.432 25.264 29.71 22.507 24.988 19.727 C22.084 18.048 19.147 16.454 16.188 14.875 C12.938 13.14 10.022 11.334 7.125 9.062 C4.308 6.755 4.308 6.755 1.738 7.133 C-1.766 8.243 -4.794 9.948 -7.938 11.812 C-8.532 12.156 -9.127 12.5 -9.74 12.854 C-12.673 14.562 -15.521 16.337 -18.316 18.262 C-21 20 -21 20 -23 20 C-23 20.66 -23 21.32 -23 22 C-26.982 23.718 -30.965 25.41 -35 27 C-35 27.66 -35 28.32 -35 29 C-36.005 29.411 -37.011 29.822 -38.047 30.246 C-41.949 31.919 -45.587 33.926 -49.25 36.062 C-49.861 36.414 -50.472 36.765 -51.102 37.127 C-53.792 38.681 -56.414 40.276 -59 42 C-59.441 45.114 -59.441 45.114 -59.341 48.836 C-59.341 49.539 -59.341 50.242 -59.342 50.965 C-59.34 53.292 -59.316 55.619 -59.293 57.945 C-59.287 59.557 -59.283 61.168 -59.28 62.78 C-59.269 67.024 -59.239 71.269 -59.206 75.514 C-59.175 79.844 -59.162 84.174 -59.146 88.504 C-59.114 97.003 -59.063 105.501 -59 114 C-56.939 115.128 -54.877 116.253 -52.812 117.375 C-51.664 118.001 -50.515 118.628 -49.332 119.273 C-46.585 120.697 -43.895 121.921 -41 123 C-41 123.66 -41 124.32 -41 125 C-40.072 125.103 -39.144 125.206 -38.188 125.312 C-34.705 126.064 -34.336 126.571 -32 129 C-29.709 130.14 -27.383 131.056 -25 132 C-25 132.66 -25 133.32 -25 134 C-22.69 134.66 -20.38 135.32 -18 136 C-18 136.66 -18 137.32 -18 138 C-17.216 138.227 -16.433 138.454 -15.625 138.688 C-10.877 140.407 -6.479 142.681 -2 145 C-2 145.66 -2 146.32 -2 147 C2.379 148.144 2.379 148.144 6.527 146.672 C7.323 146.038 8.118 145.403 8.938 144.75 C12.791 141.717 16.48 139.895 21 138 C22.983 136.855 24.942 135.666 26.875 134.438 C32.769 130.737 38.731 127.169 44.745 123.667 C48.048 121.742 51.336 119.806 54.574 117.773 C56.146 116.803 56.146 116.803 57.75 115.812 C58.652 115.241 59.555 114.67 60.484 114.082 C63.496 112.787 64.941 112.904 68 114 C68.33 114.66 68.66 115.32 69 116 C66.545 117.505 64.086 119.004 61.625 120.5 C60.577 121.144 60.577 121.144 59.508 121.801 C54.227 125 54.227 125 52 125 C51.505 126.485 51.505 126.485 51 128 C49.344 128.762 47.68 129.513 45.98 130.172 C43.931 131.029 42.095 132.052 40.188 133.188 C37 135 37 135 35 135 C34.67 135.99 34.34 136.98 34 138 C32.368 138.743 30.729 139.475 29.059 140.129 C25.325 141.708 21.911 143.86 18.438 145.938 C17.709 146.367 16.98 146.797 16.229 147.24 C15.512 147.665 14.796 148.09 14.059 148.527 C13.364 148.938 12.669 149.349 11.953 149.773 C9.741 151.118 9.741 151.118 6.848 153.441 C4 155 4 155 1.241 154.328 C-2.263 152.892 -5.432 151.2 -8.711 149.305 C-9.324 148.952 -9.937 148.6 -10.569 148.237 C-12.507 147.121 -14.441 145.998 -16.375 144.875 C-17.696 144.113 -19.018 143.351 -20.34 142.59 C-23.563 140.732 -26.783 138.868 -30 137 C-30 136.34 -30 135.68 -30 135 C-31.176 134.783 -31.176 134.783 -32.375 134.562 C-35 134 -35 134 -37 133 C-37 132.34 -37 131.68 -37 131 C-37.784 130.856 -38.567 130.711 -39.375 130.562 C-42 130 -42 130 -44 129 C-44 128.34 -44 127.68 -44 127 C-44.654 126.929 -45.307 126.858 -45.98 126.785 C-50.177 125.694 -53.586 123.612 -57.312 121.438 C-58.423 120.8 -58.423 120.8 -59.557 120.15 C-61.375 119.106 -63.188 118.054 -65 117 C-65.302 106.969 -65.532 96.939 -65.674 86.905 C-65.741 82.244 -65.833 77.587 -65.981 72.929 C-66.122 68.429 -66.2 63.931 -66.233 59.429 C-66.257 57.716 -66.304 56.003 -66.374 54.291 C-66.586 48.926 -66.579 44.164 -65 39 C-61.068 35.099 -57.091 33.199 -52 31 C-50.168 29.947 -48.349 28.872 -46.551 27.762 C-44.805 26.736 -43.059 25.711 -41.312 24.688 C-34.27 20.546 -27.267 16.35 -20.312 12.062 C-14.585 8.532 -8.826 5.16 -2.871 2.023 C-1.045 1.138 -1.045 1.138 0 0 Z M2.562 9 C3.367 9.33 4.171 9.66 5 10 C5.92 10.373 5.92 10.373 6.859 10.754 C8.587 11.469 10.295 12.231 12 13 C12 13.66 12 14.32 12 15 C14.31 15.66 16.62 16.32 19 17 C19 17.66 19 18.32 19 19 C19.679 19.246 20.359 19.492 21.059 19.746 C25.223 21.521 29.034 23.855 32.916 26.166 C35.892 27.907 38.568 29.444 42 30 C42 30.66 42 31.32 42 32 C42.674 32.245 43.348 32.49 44.043 32.742 C47.641 34.273 50.939 36.158 54.312 38.125 C54.958 38.498 55.603 38.87 56.268 39.254 C57.847 40.166 59.424 41.083 61 42 C61 42.66 61 43.32 61 44 C57.327 42.611 53.951 40.959 50.52 39.051 C48.915 38.159 48.915 38.159 47.278 37.25 C46.134 36.61 44.991 35.971 43.812 35.312 C42.618 34.65 41.424 33.988 40.23 33.326 C33.967 29.845 27.759 26.287 21.613 22.602 C20.428 21.896 19.243 21.192 18.057 20.487 C15.801 19.14 13.553 17.777 11.316 16.398 C10.296 15.791 9.277 15.184 8.227 14.559 C7.335 14.015 6.444 13.472 5.526 12.912 C2.992 11.718 2.992 11.718 0.31 12.772 C-0.452 13.177 -1.214 13.583 -2 14 C-2.723 14.358 -3.446 14.717 -4.191 15.086 C-8.886 17.638 -13.493 20.285 -18.059 23.062 C-18.953 23.606 -19.848 24.15 -20.769 24.709 C-22.577 25.812 -24.382 26.921 -26.182 28.037 C-27.019 28.548 -27.856 29.059 -28.719 29.586 C-29.847 30.283 -29.847 30.283 -30.998 30.994 C-33 32 -33 32 -36 32 C-35 29 -35 29 -32.996 27.789 C-32.152 27.405 -31.307 27.021 -30.438 26.625 C-26.43 24.724 -22.721 22.649 -18.996 20.25 C-16.144 18.464 -13.193 16.875 -10.234 15.273 C-7.989 13.993 -5.886 12.579 -3.75 11.125 C-0.362 9 -0.362 9 2.562 9 Z M-36 32 C-36 32.66 -36 33.32 -36 34 C-37.433 34.841 -38.872 35.673 -40.312 36.5 C-41.513 37.196 -41.513 37.196 -42.738 37.906 C-45 39 -45 39 -48 39 C-48 38.34 -48 37.68 -48 37 C-46.567 36.159 -45.128 35.327 -43.688 34.5 C-42.887 34.036 -42.086 33.572 -41.262 33.094 C-39 32 -39 32 -36 32 Z M-48 40 C-52.75 44 -52.75 44 -55 44 C-55 66.44 -55 88.88 -55 112 C-53.35 112.66 -51.7 113.32 -50 114 C-33.063 121.875 -33.063 121.875 -31 126 C-36 125.434 -39.736 123.111 -44 120.625 C-44.699 120.225 -45.397 119.826 -46.117 119.414 C-48.084 118.286 -50.045 117.149 -52 116 C-53.278 115.429 -53.278 115.429 -54.581 114.847 C-57 113 -57 113 -57.642 110.009 C-57.649 108.784 -57.656 107.559 -57.663 106.297 C-57.678 105.282 -57.678 105.282 -57.694 104.246 C-57.721 102.009 -57.712 99.773 -57.699 97.535 C-57.705 95.98 -57.712 94.424 -57.721 92.869 C-57.733 89.607 -57.726 86.347 -57.707 83.086 C-57.684 78.908 -57.711 74.732 -57.752 70.554 C-57.777 67.341 -57.775 64.128 -57.764 60.915 C-57.762 59.375 -57.77 57.835 -57.787 56.295 C-57.807 54.139 -57.789 51.988 -57.76 49.832 C-57.759 48.607 -57.757 47.381 -57.755 46.118 C-57 43 -57 43 -54.14 40.51 C-51 39 -51 39 -48 40 Z M60.441 111.246 C60.956 111.495 61.47 111.744 62 112 C56.43 115.878 50.747 119.299 44.762 122.496 C41.244 124.411 37.833 126.481 34.41 128.559 C31.349 130.39 28.238 132.118 25.109 133.832 C23.073 134.96 21.068 136.131 19.062 137.312 C16 139 16 139 14 139 C14 139.66 14 140.32 14 141 C12.45 141.897 10.884 142.767 9.312 143.625 C8.007 144.356 8.007 144.356 6.676 145.102 C4 146 4 146 1.168 145.148 C0.095 144.58 0.095 144.58 -1 144 C0.485 143.505 0.485 143.505 2 143 C6.127 141.489 9.816 139.501 13.625 137.312 C14.547 136.783 14.547 136.783 15.488 136.243 C20.206 133.511 24.792 130.6 29.371 127.641 C32.816 125.491 36.37 123.591 39.957 121.691 C42.318 120.379 44.6 119.023 46.887 117.59 C47.557 117.173 48.228 116.755 48.919 116.326 C50.244 115.497 51.563 114.657 52.874 113.807 C57.466 110.946 57.466 110.946 60.441 111.246 Z M-31 126 C-25.585 126.873 -21.66 129.226 -17 132 C-16.233 132.452 -15.466 132.905 -14.676 133.371 C-9.14 136.721 -9.14 136.721 -8 139 C-11.89 138.425 -14.559 137.28 -17.875 135.188 C-20.905 133.299 -23.93 131.462 -27.062 129.75 C-30 128 -30 128 -31 126 Z M-8 139 C-5.625 139.312 -5.625 139.312 -3 140 C-2.34 140.99 -1.68 141.98 -1 143 C-3.375 142.688 -3.375 142.688 -6 142 C-6.66 141.01 -7.32 140.02 -8 139 Z " fill="#175467" transform="translate(169,174)"/>
<path d="M0 0 C1.049 -0.014 2.099 -0.028 3.18 -0.043 C6.103 0.186 7.6 0.814 10.125 2.188 C12.78 1.871 14.737 1.381 17.125 0.188 C27.462 -0.744 27.462 -0.744 32.25 1.938 C35.989 6.424 36.603 9.262 36.125 15.188 C35.587 16.862 35.022 18.529 34.438 20.188 C32.798 25.211 33.75 27.438 36.125 32.188 C36.883 36.492 36.41 39.637 34.375 43.562 C31.152 47.323 31.152 47.323 28.125 48.188 C22.99 48.575 19.025 47.613 14.125 46.188 C10.698 45.908 8.536 46.032 5.312 47.25 C0.986 48.522 -2.533 48.361 -6.875 47.188 C-9.938 45.438 -9.938 45.438 -11.875 42.188 C-12.549 36.659 -12.679 31.349 -10.723 26.09 C-9.683 22.53 -10.363 21.479 -11.875 18.188 C-12.502 12.701 -12.843 7.834 -10 3 C-6.562 0.068 -4.463 0.027 0 0 Z " fill="#326879" transform="translate(160.875,224.8125)"/>
<path d="M0 0 C20.223 -1.205 20.223 -1.205 25.75 3.25 C31.038 9.881 29.92 18.938 29.483 26.966 C28.861 29.585 28.231 30.485 26 32 C23.273 32.341 23.273 32.341 20.02 32.293 C18.971 32.285 17.923 32.278 16.843 32.27 C14.848 32.229 14.848 32.229 12.812 32.188 C8.584 32.126 4.356 32.064 0 32 C0 21.44 0 10.88 0 0 Z " fill="#185568" transform="translate(419,235)"/>
<path d="M0 0 C20.223 -1.205 20.223 -1.205 25.75 3.25 C31.038 9.881 29.92 18.938 29.483 26.966 C28.861 29.585 28.231 30.485 26 32 C23.273 32.341 23.273 32.341 20.02 32.293 C18.971 32.285 17.923 32.278 16.843 32.27 C14.848 32.229 14.848 32.229 12.812 32.188 C8.584 32.126 4.356 32.064 0 32 C0 21.44 0 10.88 0 0 Z " fill="#185568" transform="translate(386,235)"/>
<path d="M0 0 C2.23 1.475 4.009 3.194 6 5 C5.34 5.33 4.68 5.66 4 6 C2.907 5.505 1.814 5.01 0.688 4.5 C-3.702 2.71 -3.702 2.71 -8 4 C-9.67 5.179 -11.337 6.363 -12.969 7.594 C-17.788 10.93 -23.243 13.782 -29 15 C-29 14.34 -29 13.68 -29 13 C-28.105 12.492 -27.211 11.984 -26.289 11.461 C-25.418 10.965 -25.418 10.965 -24.529 10.459 C-23.253 9.733 -21.977 9.008 -20.699 8.285 C-16.085 5.661 -11.601 2.881 -7.184 -0.066 C-4.335 -1.284 -2.91 -0.973 0 0 Z M6 6 C9.27 6.564 10.826 7.5 13 10 C8.25 9.125 8.25 9.125 6 8 C6 7.34 6 6.68 6 6 Z M13 10 C18.284 10.518 22.3 13.262 26.75 15.938 C27.53 16.393 28.31 16.849 29.113 17.318 C34.868 20.736 34.868 20.736 36 23 C32.426 22.426 29.716 21.501 26.574 19.715 C25.38 19.043 25.38 19.043 24.162 18.357 C23.345 17.889 22.529 17.42 21.688 16.938 C20.852 16.465 20.016 15.993 19.154 15.506 C17.099 14.343 15.048 13.175 13 12 C13 11.34 13 10.68 13 10 Z M-29 16 C-30.432 17.008 -31.871 18.006 -33.312 19 C-34.513 19.835 -34.513 19.835 -35.738 20.688 C-38 22 -38 22 -41 22 C-41 21.34 -41 20.68 -41 20 C-39.391 18.676 -39.391 18.676 -37.25 17.312 C-36.554 16.855 -35.858 16.397 -35.141 15.926 C-32.609 14.831 -31.539 15.056 -29 16 Z M-41 23 C-42.256 25.511 -43.319 25.846 -45.812 27.062 C-46.5 27.404 -47.187 27.746 -47.895 28.098 C-49.919 28.965 -51.852 29.532 -54 30 C-54 30.66 -54 31.32 -54 32 C-57.96 33.98 -57.96 33.98 -62 36 C-62.33 59.1 -62.66 82.2 -63 106 C-61.35 106.66 -59.7 107.32 -58 108 C-56.402 108.804 -54.818 109.637 -53.25 110.5 C-52.471 110.923 -51.693 111.346 -50.891 111.781 C-49 113 -49 113 -48 115 C-55.03 114.082 -60.87 112.042 -66 107 C-67.792 101.631 -67.67 96.398 -67.559 90.812 C-67.564 89.225 -67.573 87.638 -67.586 86.05 C-67.599 82.73 -67.57 79.414 -67.51 76.095 C-67.436 71.852 -67.465 67.618 -67.525 63.375 C-67.561 60.099 -67.544 56.825 -67.511 53.549 C-67.501 51.986 -67.507 50.423 -67.53 48.86 C-67.66 36.713 -67.66 36.713 -63.642 32.567 C-60.829 30.76 -58.043 29.376 -55 28 C-53.17 26.861 -51.354 25.698 -49.562 24.5 C-46.273 22.375 -44.744 21.567 -41 23 Z M36 23 C41.331 23.646 45.352 26.382 49.828 29.117 C53.208 31.131 56.075 32.524 60 33 C59.361 33.124 58.721 33.248 58.062 33.375 C57.382 33.581 56.701 33.787 56 34 C55.67 34.66 55.34 35.32 55 36 C54.495 35.702 53.991 35.405 53.471 35.098 C51.19 33.752 48.907 32.407 46.625 31.062 C45.831 30.594 45.037 30.125 44.219 29.643 C43.458 29.195 42.698 28.747 41.914 28.285 C41.212 27.871 40.511 27.458 39.788 27.031 C38.547 26.315 37.281 25.641 36 25 C36 24.34 36 23.68 36 23 Z M-42 25 C-40 26 -40 26 -40 26 Z M-54 32 C-52 33 -52 33 -52 33 Z M55 105 C55.66 105.66 56.32 106.32 57 107 C51.287 110.348 45.569 113.684 39.807 116.948 C34.5 119.957 29.249 123.036 24.062 126.25 C11.537 134 11.537 134 8 134 C8 133.34 8 132.68 8 132 C8.713 131.613 9.426 131.227 10.16 130.828 C11.118 130.307 12.076 129.787 13.062 129.25 C14.002 128.74 14.942 128.229 15.91 127.703 C18.699 126.166 21.468 124.598 24.23 123.013 C25.936 122.037 27.647 121.071 29.359 120.105 C35.928 116.39 42.375 112.576 48.695 108.445 C50.752 107.155 52.808 106.04 55 105 Z M-48 115 C-45.625 115.312 -45.625 115.312 -43 116 C-42.34 116.99 -41.68 117.98 -41 119 C-43.97 118.505 -43.97 118.505 -47 118 C-47.33 117.01 -47.66 116.02 -48 115 Z M-37 118 C-35 119 -35 119 -35 119 Z M-41 119 C-36.686 119.479 -34.834 120.746 -32 124 C-35.735 123.502 -37.812 123.125 -41 121 C-41 120.34 -41 119.68 -41 119 Z M-32 124 C-29.625 124.312 -29.625 124.312 -27 125 C-26.34 125.99 -25.68 126.98 -25 128 C-27.97 127.505 -27.97 127.505 -31 127 C-31.33 126.01 -31.66 125.02 -32 124 Z M-25 128 C-21.072 128.574 -18.403 129.754 -15.062 131.875 C-14.192 132.409 -13.322 132.942 -12.426 133.492 C-11.625 133.99 -10.825 134.487 -10 135 C-5.689 137.758 -5.689 137.758 -0.812 137.312 C2.114 136.033 2.114 136.033 5 134 C5.99 134.33 6.98 134.66 8 135 C4.8 137.593 1.625 140.031 -2 142 C-5.625 141.438 -5.625 141.438 -8 140 C-8 139.34 -8 138.68 -8 138 C-8.706 137.894 -9.413 137.789 -10.141 137.68 C-13.356 136.915 -15.849 135.701 -18.75 134.125 C-19.714 133.612 -20.678 133.099 -21.672 132.57 C-24 131 -24 131 -25 128 Z M-15 130 C-14.01 130.33 -13.02 130.66 -12 131 C-12.99 131 -13.98 131 -15 131 C-15 130.67 -15 130.34 -15 130 Z M-8 134 C-7.01 134.33 -6.02 134.66 -5 135 C-5.99 135 -6.98 135 -8 135 C-8 134.67 -8 134.34 -8 134 Z " fill="#D1DDE1" transform="translate(175,181)"/>
<path d="M0 0 C3.52 1.217 5.55 3.132 8.27 5.664 C9.211 6.525 10.152 7.386 11.121 8.273 C13.504 10.767 15.248 12.765 16.645 15.914 C16.378 21.741 12.521 24.953 8.645 28.914 C8.048 29.535 7.451 30.157 6.836 30.797 C4.103 33.414 2.533 34.82 -1.293 35.227 C-5.803 33.294 -8.905 30.351 -12.355 26.914 C-12.976 26.317 -13.596 25.72 -14.234 25.105 C-16.815 22.417 -18.241 20.788 -18.73 17.039 C-15.958 10.737 -7.639 -0.279 0 0 Z " fill="#F8FAFA" transform="translate(173.35546875,231.0859375)"/>
<path d="M0 0 C0 10.56 0 21.12 0 32 C-2.31 32 -4.62 32 -7 32 C-7 29.03 -7 26.06 -7 23 C-11.95 23 -16.9 23 -22 23 C-21.979 24.464 -21.959 25.929 -21.938 27.438 C-21.916 28.958 -21.928 30.481 -22 32 C-23 33 -23 33 -26.062 33.062 C-27.032 33.042 -28.001 33.021 -29 33 C-30.66 9.052 -30.66 9.052 -25.75 3 C-18.63 -2.418 -8.297 -0.495 0 0 Z " fill="#195568" transform="translate(288,235)"/>
<path d="M0 0 C8.91 0 17.82 0 27 0 C27 2.31 27 4.62 27 7 C20.07 7 13.14 7 6 7 C6 8.98 6 10.96 6 13 C12.27 13 18.54 13 25 13 C25 14.98 25 16.96 25 19 C18.73 19 12.46 19 6 19 C6 21.31 6 23.62 6 26 C12.93 26 19.86 26 27 26 C27 27.98 27 29.96 27 32 C18.09 32 9.18 32 0 32 C0 21.44 0 10.88 0 0 Z " fill="#0E4D61" transform="translate(355,235)"/>
<path d="M0 0 C2.31 0 4.62 0 7 0 C7 4.29 7 8.58 7 13 C11.95 13 16.9 13 22 13 C22 8.71 22 4.42 22 0 C24.31 0 26.62 0 29 0 C29 10.56 29 21.12 29 32 C26.69 32 24.38 32 22 32 C22 28.04 22 24.08 22 20 C17.05 20 12.1 20 7 20 C7 23.96 7 27.92 7 32 C4.69 32 2.38 32 0 32 C0 21.44 0 10.88 0 0 Z " fill="#1B5769" transform="translate(226,235)"/>
<path d="M0 0 C9.57 0 19.14 0 29 0 C29 7 29 7 27.455 9.323 C26.749 9.986 26.044 10.649 25.316 11.332 C24.554 12.067 23.791 12.803 23.006 13.561 C22.2 14.304 21.393 15.047 20.562 15.812 C18.979 17.317 17.397 18.824 15.816 20.332 C14.756 21.318 14.756 21.318 13.674 22.323 C11.913 23.911 11.913 23.911 11 26 C16.94 26 22.88 26 29 26 C29 27.98 29 29.96 29 32 C19.76 32 10.52 32 1 32 C1 25 1 25 2.453 22.768 C3.117 22.147 3.781 21.526 4.465 20.887 C5.182 20.196 5.9 19.506 6.639 18.795 C7.397 18.099 8.156 17.404 8.938 16.688 C10.427 15.276 11.916 13.864 13.402 12.449 C14.4 11.526 14.4 11.526 15.418 10.585 C17.096 9.07 17.096 9.07 18 7 C12.06 7 6.12 7 0 7 C0 4.69 0 2.38 0 0 Z " fill="#0F4E61" transform="translate(322,235)"/>
<path d="M0 0 C0.804 0.33 1.609 0.66 2.438 1 C3.358 1.373 3.358 1.373 4.297 1.754 C6.025 2.469 7.733 3.231 9.438 4 C9.438 4.66 9.438 5.32 9.438 6 C11.748 6.66 14.058 7.32 16.438 8 C16.438 8.66 16.438 9.32 16.438 10 C17.117 10.246 17.796 10.492 18.496 10.746 C22.66 12.521 26.472 14.855 30.354 17.166 C33.329 18.907 36.006 20.444 39.438 21 C39.438 21.66 39.438 22.32 39.438 23 C40.112 23.245 40.786 23.49 41.48 23.742 C45.078 25.273 48.376 27.158 51.75 29.125 C52.395 29.498 53.04 29.87 53.705 30.254 C55.284 31.166 56.861 32.083 58.438 33 C58.438 33.66 58.438 34.32 58.438 35 C54.764 33.611 51.388 31.959 47.957 30.051 C46.352 29.159 46.352 29.159 44.715 28.25 C43.572 27.61 42.428 26.971 41.25 26.312 C40.056 25.65 38.862 24.988 37.667 24.326 C31.404 20.845 25.197 17.287 19.051 13.602 C17.866 12.896 16.68 12.192 15.495 11.487 C13.238 10.14 10.991 8.777 8.753 7.398 C7.734 6.791 6.714 6.184 5.664 5.559 C4.773 5.015 3.882 4.472 2.963 3.912 C0.429 2.718 0.429 2.718 -2.252 3.772 C-3.015 4.177 -3.777 4.583 -4.562 5 C-5.286 5.358 -6.009 5.717 -6.754 6.086 C-11.449 8.638 -16.056 11.285 -20.621 14.062 C-21.516 14.606 -22.41 15.15 -23.332 15.709 C-25.14 16.812 -26.944 17.921 -28.744 19.037 C-29.582 19.548 -30.419 20.059 -31.281 20.586 C-32.41 21.283 -32.41 21.283 -33.561 21.994 C-35.562 23 -35.562 23 -38.562 23 C-37.562 20 -37.562 20 -35.559 18.789 C-34.714 18.405 -33.87 18.021 -33 17.625 C-28.992 15.724 -25.284 13.649 -21.559 11.25 C-18.706 9.464 -15.756 7.875 -12.797 6.273 C-10.551 4.993 -8.449 3.579 -6.312 2.125 C-2.925 0 -2.925 0 0 0 Z M8.438 2 C10.417 2.99 10.417 2.99 12.438 4 C11.118 3.67 9.798 3.34 8.438 3 C8.438 2.67 8.438 2.34 8.438 2 Z M15.438 6 C17.417 6.99 17.417 6.99 19.438 8 C18.118 7.67 16.798 7.34 15.438 7 C15.438 6.67 15.438 6.34 15.438 6 Z M-27.562 12 C-25.562 13 -25.562 13 -25.562 13 Z M-39.562 19 C-37.562 20 -37.562 20 -37.562 20 Z M38.438 19 C40.417 19.99 40.417 19.99 42.438 21 C41.118 20.67 39.798 20.34 38.438 20 C38.438 19.67 38.438 19.34 38.438 19 Z M-38.562 23 C-38.562 23.66 -38.562 24.32 -38.562 25 C-39.995 25.841 -41.434 26.673 -42.875 27.5 C-44.076 28.196 -44.076 28.196 -45.301 28.906 C-47.562 30 -47.562 30 -50.562 30 C-50.562 29.34 -50.562 28.68 -50.562 28 C-49.13 27.159 -47.691 26.327 -46.25 25.5 C-45.449 25.036 -44.649 24.572 -43.824 24.094 C-41.562 23 -41.562 23 -38.562 23 Z M-50.562 31 C-55.312 35 -55.312 35 -57.562 35 C-57.562 57.44 -57.562 79.88 -57.562 103 C-55.912 103.66 -54.263 104.32 -52.562 105 C-35.625 112.875 -35.625 112.875 -33.562 117 C-38.562 116.434 -42.299 114.111 -46.562 111.625 C-47.261 111.225 -47.96 110.826 -48.68 110.414 C-50.647 109.286 -52.608 108.149 -54.562 107 C-55.84 106.429 -55.84 106.429 -57.143 105.847 C-59.562 104 -59.562 104 -60.204 101.009 C-60.211 99.784 -60.218 98.559 -60.225 97.297 C-60.241 96.282 -60.241 96.282 -60.257 95.246 C-60.284 93.009 -60.274 90.773 -60.262 88.535 C-60.268 86.98 -60.275 85.424 -60.283 83.869 C-60.295 80.607 -60.289 77.347 -60.269 74.086 C-60.246 69.908 -60.273 65.732 -60.314 61.554 C-60.34 58.341 -60.337 55.128 -60.326 51.915 C-60.325 50.375 -60.333 48.835 -60.35 47.295 C-60.37 45.139 -60.351 42.988 -60.323 40.832 C-60.321 39.607 -60.319 38.381 -60.318 37.118 C-59.562 34 -59.562 34 -56.702 31.51 C-53.562 30 -53.562 30 -50.562 31 Z M-46.562 113 C-45.573 113.33 -44.582 113.66 -43.562 114 C-44.552 114 -45.543 114 -46.562 114 C-46.562 113.67 -46.562 113.34 -46.562 113 Z M-39.562 117 C-37.562 118 -37.562 118 -37.562 118 Z " fill="#638C99" transform="translate(171.5625,183)"/>
<path d="M0 0 C2.152 0.719 2.152 0.719 5.465 2.469 C6.172 4.578 6.172 4.578 6.465 6.469 C5.743 6.395 5.021 6.322 4.277 6.246 C-1.672 6.717 -6.4 12.19 -10.328 16.383 C-12.314 18.908 -13.595 20.639 -13.359 23.918 C-12.418 26.832 -11.236 28.36 -9.16 30.594 C-8.251 31.588 -8.251 31.588 -7.324 32.602 C-6.183 33.793 -5.013 34.958 -3.809 36.086 C-2.535 37.469 -2.535 37.469 -2.535 39.469 C-5.663 38.084 -7.776 36.474 -10.16 34.031 C-10.751 33.434 -11.341 32.838 -11.949 32.223 C-13.535 30.469 -13.535 30.469 -15.535 27.469 C-17.956 29.89 -18.064 31.27 -18.66 34.594 C-18.912 35.959 -18.912 35.959 -19.168 37.352 C-19.289 38.05 -19.41 38.749 -19.535 39.469 C-19.865 39.469 -20.195 39.469 -20.535 39.469 C-20.734 33.249 -20.512 28.398 -18.535 22.469 C-18.839 21.713 -19.144 20.958 -19.457 20.18 C-21.346 15.43 -21.119 10.496 -20.535 5.469 C-15.995 -2.25 -8.121 -1.702 0 0 Z " fill="#215B6D" transform="translate(169.53515625,225.53125)"/>
<path d="M0 0 C0.33 0 0.66 0 1 0 C2.209 46.553 2.209 46.553 2 69 C2.727 69.278 3.454 69.557 4.203 69.844 C6.825 70.928 9.266 72.133 11.75 73.5 C12.529 73.923 13.307 74.346 14.109 74.781 C16 76 16 76 17 78 C10.925 77.68 4.327 74.327 0 70 C-0.094 67.822 -0.117 65.641 -0.114 63.461 C-0.114 62.778 -0.114 62.095 -0.114 61.391 C-0.113 59.124 -0.105 56.857 -0.098 54.59 C-0.096 53.022 -0.094 51.454 -0.093 49.886 C-0.09 45.751 -0.08 41.617 -0.069 37.482 C-0.058 33.266 -0.054 29.05 -0.049 24.834 C-0.038 16.556 -0.021 8.278 0 0 Z M120 68 C120.66 68.66 121.32 69.32 122 70 C116.287 73.348 110.569 76.684 104.807 79.948 C99.5 82.957 94.249 86.036 89.062 89.25 C76.537 97 76.537 97 73 97 C73 96.34 73 95.68 73 95 C73.713 94.613 74.426 94.227 75.16 93.828 C76.118 93.307 77.076 92.787 78.062 92.25 C79.002 91.74 79.942 91.229 80.91 90.703 C83.699 89.166 86.468 87.598 89.23 86.013 C90.936 85.037 92.647 84.071 94.359 83.105 C100.928 79.39 107.375 75.576 113.695 71.445 C115.752 70.155 117.808 69.04 120 68 Z M17 78 C19.375 78.312 19.375 78.312 22 79 C22.66 79.99 23.32 80.98 24 82 C21.03 81.505 21.03 81.505 18 81 C17.67 80.01 17.34 79.02 17 78 Z M28 81 C30 82 30 82 30 82 Z M24 82 C28.314 82.479 30.166 83.746 33 87 C29.265 86.502 27.188 86.125 24 84 C24 83.34 24 82.68 24 82 Z M33 87 C35.375 87.312 35.375 87.312 38 88 C38.66 88.99 39.32 89.98 40 91 C37.03 90.505 37.03 90.505 34 90 C33.67 89.01 33.34 88.02 33 87 Z M40 91 C43.928 91.574 46.597 92.754 49.938 94.875 C50.808 95.409 51.678 95.942 52.574 96.492 C53.375 96.99 54.175 97.487 55 98 C59.311 100.758 59.311 100.758 64.188 100.312 C67.114 99.033 67.114 99.033 70 97 C70.99 97.33 71.98 97.66 73 98 C69.8 100.593 66.625 103.031 63 105 C59.375 104.438 59.375 104.438 57 103 C57 102.34 57 101.68 57 101 C56.294 100.894 55.587 100.789 54.859 100.68 C51.644 99.915 49.151 98.701 46.25 97.125 C45.286 96.612 44.322 96.099 43.328 95.57 C41 94 41 94 40 91 Z M50 93 C50.99 93.33 51.98 93.66 53 94 C52.01 94 51.02 94 50 94 C50 93.67 50 93.34 50 93 Z M57 97 C57.99 97.33 58.98 97.66 60 98 C59.01 98 58.02 98 57 98 C57 97.67 57 97.34 57 97 Z " fill="#E0E8EB" transform="translate(110,218)"/>
<path d="M0 0 C2.31 0 4.62 0 7 0 C7.026 0.687 7.052 1.374 7.078 2.082 C7.135 2.983 7.192 3.884 7.25 4.812 C7.296 5.706 7.343 6.599 7.391 7.52 C7.801 10.124 7.801 10.124 9.859 11.836 C12.912 13.496 14.707 12.892 18 12 C19.32 11.34 20.64 10.68 22 10 C22 6.7 22 3.4 22 0 C24.31 0 26.62 0 29 0 C29.605 4.472 29.886 8.555 29 13 C26.599 15.191 24.128 16.526 21.293 18.102 C18.725 19.864 18.725 19.864 18.113 23.086 C17.9 26.092 17.832 28.992 18 32 C15.69 32 13.38 32 11 32 C11.044 31.215 11.088 30.43 11.133 29.621 C11.124 26.173 10.955 23.323 10 20 C7.734 18.006 7.734 18.006 4.938 16.562 C2.191 15 2.191 15 0 13 C-0.886 8.555 -0.605 4.472 0 0 Z " fill="#1B576A" transform="translate(291,235)"/>
<path d="M0 0 C8.901 -0.593 8.901 -0.593 13.125 1.688 C16.144 7.022 15.306 11.944 15 18 C10.05 18 5.1 18 0 18 C0 12.06 0 6.12 0 0 Z " fill="#FAFBFB" transform="translate(426,242)"/>
<path d="M0 0 C8.901 -0.593 8.901 -0.593 13.125 1.688 C16.144 7.022 15.306 11.944 15 18 C10.05 18 5.1 18 0 18 C0 12.06 0 6.12 0 0 Z " fill="#FAFBFB" transform="translate(393,242)"/>
<path d="M0 0 C0.66 0.33 1.32 0.66 2 1 C2 1.66 2 2.32 2 3 C-4.625 7 -4.625 7 -8 7 C-8 6.34 -8 5.68 -8 5 C-6.32 3.676 -6.32 3.676 -4.125 2.312 C-3.406 1.855 -2.686 1.397 -1.945 0.926 C-1.303 0.62 -0.661 0.315 0 0 Z M-8 8 C-9.256 10.511 -10.319 10.846 -12.812 12.062 C-13.5 12.404 -14.187 12.746 -14.895 13.098 C-16.919 13.965 -18.852 14.532 -21 15 C-21 15.66 -21 16.32 -21 17 C-24.96 18.98 -24.96 18.98 -29 21 C-29.33 35.52 -29.66 50.04 -30 65 C-30.33 65 -30.66 65 -31 65 C-31.33 73.91 -31.66 82.82 -32 92 C-32.33 92 -32.66 92 -33 92 C-33.255 82.734 -33.451 73.469 -33.57 64.2 C-33.627 59.895 -33.705 55.593 -33.83 51.29 C-33.95 47.133 -34.015 42.979 -34.044 38.821 C-34.064 37.239 -34.103 35.656 -34.163 34.074 C-34.34 29.173 -34.34 24.744 -33 20 C-29.751 16.587 -26.257 14.902 -22 13 C-20.169 11.862 -18.354 10.699 -16.562 9.5 C-13.273 7.375 -11.744 6.567 -8 8 Z M-9 10 C-7 11 -7 11 -7 11 Z M-21 17 C-19 18 -19 18 -19 18 Z " fill="#97B2BB" transform="translate(142,196)"/>
<path d="M0 0 C0.99 0.66 1.98 1.32 3 2 C3.434 4.68 3.434 4.68 3.438 7.875 C3.467 9.449 3.467 9.449 3.496 11.055 C2.89 14.651 1.841 15.785 -1 18 C-6.147 19.638 -9.974 18.473 -15 17 C-13.51 13.206 -11.309 11.317 -8 9 C-7.34 9 -6.68 9 -6 9 C-5.752 8.443 -5.505 7.886 -5.25 7.312 C-3.784 4.6 -1.97 2.364 0 0 Z " fill="#F0F4F5" transform="translate(191,252)"/>
<path d="M0 0 C3.125 1.875 3.125 1.875 5 5 C5.774 10.149 5.624 14.436 3 19 C2.167 17.906 2.167 17.906 1.316 16.789 C-0.976 14.029 -3.369 11.74 -6.062 9.375 C-8.782 6.979 -11.474 4.601 -14 2 C-9.436 -0.624 -5.149 -0.774 0 0 Z " fill="#F3F6F7" transform="translate(189,227)"/>
<path d="M0 0 C2.309 1.531 2.309 1.531 4 3 C3.348 3.485 2.695 3.969 2.023 4.469 C-3.622 8.798 -8.1 13.038 -12 19 C-14.227 17.235 -14.941 16.315 -15.469 13.477 C-15.519 8.854 -15.506 5.861 -13.125 1.812 C-8.82 -0.685 -4.875 -0.951 0 0 Z " fill="#F3F6F7" transform="translate(166,227)"/>
<path d="M0 0 C5.333 5.333 10.667 10.667 16 16 C11.527 18.982 7.24 18.588 2 18 C-0.688 16.688 -0.688 16.688 -2 14 C-2.588 8.76 -2.982 4.473 0 0 Z " fill="#F4F7F8" transform="translate(153,252)"/>
<path d="M0 0 C0.514 0.249 1.029 0.498 1.559 0.754 C-4.011 4.632 -9.695 8.053 -15.68 11.25 C-19.197 13.165 -22.608 15.235 -26.031 17.312 C-29.093 19.143 -32.204 20.872 -35.332 22.586 C-37.368 23.713 -39.373 24.885 -41.379 26.066 C-44.441 27.754 -44.441 27.754 -46.441 27.754 C-46.441 28.414 -46.441 29.074 -46.441 29.754 C-47.991 30.651 -49.557 31.521 -51.129 32.379 C-52.434 33.11 -52.434 33.11 -53.766 33.855 C-56.441 34.754 -56.441 34.754 -59.273 33.902 C-60.347 33.334 -60.347 33.334 -61.441 32.754 C-59.956 32.259 -59.956 32.259 -58.441 31.754 C-54.314 30.243 -50.626 28.255 -46.816 26.066 C-45.894 25.537 -45.894 25.537 -44.954 24.997 C-40.235 22.265 -35.649 19.354 -31.07 16.395 C-27.625 14.245 -24.072 12.345 -20.484 10.445 C-18.123 9.133 -15.842 7.777 -13.555 6.344 C-12.884 5.927 -12.213 5.509 -11.522 5.08 C-10.198 4.25 -8.879 3.411 -7.567 2.561 C-2.976 -0.3 -2.976 -0.3 0 0 Z M-68.441 27.754 C-66.066 28.066 -66.066 28.066 -63.441 28.754 C-62.781 29.744 -62.121 30.734 -61.441 31.754 C-63.816 31.441 -63.816 31.441 -66.441 30.754 C-67.101 29.764 -67.761 28.774 -68.441 27.754 Z M-46.441 29.754 C-45.781 30.084 -45.121 30.414 -44.441 30.754 C-45.431 30.754 -46.421 30.754 -47.441 30.754 C-47.111 30.424 -46.781 30.094 -46.441 29.754 Z " fill="#578491" transform="translate(229.44140625,285.24609375)"/>
<path d="M0 0 C0.33 0 0.66 0 1 0 C1.33 22.44 1.66 44.88 2 68 C3.65 68.66 5.3 69.32 7 70 C23.937 77.875 23.937 77.875 26 82 C21 81.434 17.264 79.111 13 76.625 C12.301 76.225 11.603 75.826 10.883 75.414 C8.916 74.286 6.955 73.149 5 72 C4.146 71.619 3.293 71.238 2.413 70.845 C0 69 0 69 -0.601 66.02 C-0.59 64.801 -0.579 63.581 -0.568 62.325 C-0.568 61.652 -0.569 60.979 -0.57 60.285 C-0.566 58.06 -0.527 55.838 -0.488 53.613 C-0.479 52.071 -0.472 50.528 -0.467 48.985 C-0.448 44.926 -0.399 40.867 -0.343 36.808 C-0.292 32.666 -0.269 28.523 -0.244 24.381 C-0.191 16.253 -0.105 8.127 0 0 Z M13 78 C13.99 78.33 14.98 78.66 16 79 C15.01 79 14.02 79 13 79 C13 78.67 13 78.34 13 78 Z M20 82 C22 83 22 83 22 83 Z " fill="#3B6F7F" transform="translate(112,218)"/>
<path d="M0 0 C2 1 2 1 2 1 Z M2 1 C2.66 1.33 3.32 1.66 4 2 C0.326 6.008 -3.121 8.56 -8 11 C-8.99 11 -9.98 11 -11 11 C-10 8 -10 8 -7.785 6.684 C-6.887 6.272 -5.988 5.861 -5.062 5.438 C-1.219 3.676 -1.219 3.676 2 1 Z M-12 7 C-10 8 -10 8 -10 8 Z M-11 11 C-11 11.66 -11 12.32 -11 13 C-12.433 13.841 -13.872 14.673 -15.312 15.5 C-16.513 16.196 -16.513 16.196 -17.738 16.906 C-20 18 -20 18 -23 18 C-23 17.34 -23 16.68 -23 16 C-21.567 15.159 -20.128 14.327 -18.688 13.5 C-17.887 13.036 -17.086 12.572 -16.262 12.094 C-14 11 -14 11 -11 11 Z M-23 19 C-27.75 23 -27.75 23 -30 23 C-30 41.15 -30 59.3 -30 78 C-30.33 78 -30.66 78 -31 78 C-31.295 70.099 -31.542 62.198 -31.757 54.294 C-31.832 51.604 -31.922 48.916 -32.025 46.228 C-32.168 42.365 -32.271 38.504 -32.367 34.641 C-32.42 33.436 -32.473 32.232 -32.527 30.991 C-32.675 22.915 -32.675 22.915 -30.743 20.296 C-27.807 18.16 -26.452 17.849 -23 19 Z " fill="#84A5AF" transform="translate(144,195)"/>
<path d="M0 0 C0 2.97 0 5.94 0 9 C-4.95 9 -9.9 9 -15 9 C-14 4 -14 4 -12.562 1.688 C-8.598 -0.923 -4.615 -0.317 0 0 Z " fill="#F7F9FA" transform="translate(281,242)"/>
<path d="M0 0 C0.66 0.66 1.32 1.32 2 2 C-3.713 5.348 -9.431 8.684 -15.193 11.948 C-21.594 15.577 -27.882 19.353 -34.133 23.234 C-37.382 25.235 -40.668 27.141 -44 29 C-44.99 28.34 -45.98 27.68 -47 27 C-46.287 26.613 -45.574 26.227 -44.84 25.828 C-43.882 25.307 -42.924 24.787 -41.938 24.25 C-40.998 23.74 -40.058 23.229 -39.09 22.703 C-36.301 21.166 -33.532 19.598 -30.77 18.013 C-29.064 17.037 -27.353 16.071 -25.641 15.105 C-19.072 11.39 -12.625 7.576 -6.305 3.445 C-4.248 2.155 -2.192 1.04 0 0 Z " fill="#D8E2E6" transform="translate(230,286)"/>
<path d="M0 0 C3.041 1.106 5.787 2.417 8.562 4.062 C11.221 5.561 13.05 6.528 16 7 C16 7.66 16 8.32 16 9 C16.674 9.245 17.348 9.49 18.043 9.742 C21.641 11.273 24.939 13.158 28.312 15.125 C28.958 15.498 29.603 15.87 30.268 16.254 C31.847 17.166 33.424 18.083 35 19 C35 19.66 35 20.32 35 21 C31.028 19.516 27.413 17.657 23.711 15.594 C23.126 15.268 22.541 14.943 21.938 14.608 C20.708 13.923 19.48 13.238 18.252 12.55 C16.376 11.5 14.497 10.455 12.617 9.41 C3.46 4.307 3.46 4.307 0 2 C0 1.34 0 0.68 0 0 Z M15 5 C16.98 5.99 16.98 5.99 19 7 C17.68 6.67 16.36 6.34 15 6 C15 5.67 15 5.34 15 5 Z " fill="#5A8593" transform="translate(195,197)"/>
<path d="M0 0 C1.875 0.188 1.875 0.188 4 1 C6.411 4.978 6.728 9.464 6 14 C4.376 17.132 2.997 19.243 0.188 21.375 C-4.895 22.827 -9.292 22.282 -14 20 C-14 19.67 -14 19.34 -14 19 C-13.42 19.023 -12.84 19.046 -12.242 19.07 C-7.426 19.182 -3.482 19.017 1 17 C2.356 14.289 2.169 12.087 2.188 9.062 C2.209 7.471 2.209 7.471 2.23 5.848 C2.216 2.797 2.216 2.797 0 0 Z " fill="#437484" transform="translate(191,251)"/>
<path d="M0 0 C2.438 0.375 2.438 0.375 5 1 C5.33 1.66 5.66 2.32 6 3 C4.02 2.34 2.04 1.68 0 1 C0 0.67 0 0.34 0 0 Z M-2 1 C0.211 1.883 0.211 1.883 2 3 C1.336 3.326 0.672 3.652 -0.012 3.988 C-5.164 6.538 -10.159 9.134 -14.969 12.293 C-15.68 12.753 -16.392 13.213 -17.125 13.688 C-17.788 14.124 -18.45 14.561 -19.133 15.012 C-21 16 -21 16 -24 16 C-24 15.34 -24 14.68 -24 14 C-23.082 13.481 -22.164 12.961 -21.219 12.426 C-19.979 11.721 -18.74 11.017 -17.5 10.312 C-16.86 9.951 -16.22 9.59 -15.561 9.217 C-12.063 7.229 -8.695 5.153 -5.375 2.875 C-4.261 2.256 -3.148 1.637 -2 1 Z M2 3 C4 4 4 4 4 4 Z M-26 16 C-25.34 16.33 -24.68 16.66 -24 17 C-24.99 17 -25.98 17 -27 17 C-26.67 16.67 -26.34 16.34 -26 16 Z " fill="#D3DFE2" transform="translate(170,180)"/>
<path d="M0 0 C4.31 -0.357 6.613 0.599 10.25 2.875 C11.557 3.676 11.557 3.676 12.891 4.492 C15 6 15 6 16 8 C9.783 7.673 4.991 4.472 0 1 C0 0.67 0 0.34 0 0 Z M16 8 C18.375 8.312 18.375 8.312 21 9 C21.66 9.99 22.32 10.98 23 12 C20.03 11.505 20.03 11.505 17 11 C16.67 10.01 16.34 9.02 16 8 Z M27 11 C29 12 29 12 29 12 Z M23 12 C25.375 12.25 25.375 12.25 28 13 C29.312 15.062 29.312 15.062 30 17 C27.062 16.188 27.062 16.188 24 15 C23.67 14.01 23.34 13.02 23 12 Z " fill="#C3D3D8" transform="translate(111,288)"/>
<path d="M0 0 C0.33 0 0.66 0 1 0 C1 1.98 1 3.96 1 6 C0.67 6 0.34 6 0 6 C0 4.02 0 2.04 0 0 Z M17 5 C18.32 5.66 19.64 6.32 21 7 C20.375 9.375 20.375 9.375 19 12 C14.214 14.568 9.137 14.511 4 13 C0.938 10.438 0.938 10.438 -1 8 C-0.67 7.34 -0.34 6.68 0 6 C1.485 6.99 1.485 6.99 3 8 C3 8.66 3 9.32 3 10 C5.125 10.054 7.25 10.093 9.375 10.125 C11.15 10.16 11.15 10.16 12.961 10.195 C16.112 10.329 16.112 10.329 18 8 C17.34 7.34 16.68 6.68 16 6 C16.33 5.67 16.66 5.34 17 5 Z " fill="#316778" transform="translate(150,259)"/>
<path d="M0 0 C0.523 0.237 1.047 0.474 1.586 0.719 C-4.039 4.636 -9.781 8.111 -15.836 11.324 C-18.469 12.701 -18.469 12.701 -21.055 14.457 C-21.833 14.873 -22.612 15.29 -23.414 15.719 C-24.404 15.389 -25.394 15.059 -26.414 14.719 C-20.804 10.583 -15.039 6.76 -9.039 3.219 C-8.445 2.857 -7.85 2.494 -7.238 2.121 C-2.972 -0.346 -2.972 -0.346 0 0 Z " fill="#578491" transform="translate(229.4140625,285.28125)"/>
<path d="M0 0 C3.668 1.503 5.689 3.637 8.25 6.625 C8.956 7.442 9.663 8.26 10.391 9.102 C10.922 9.728 11.453 10.355 12 11 C12.99 10.67 13.98 10.34 15 10 C14.67 12.64 14.34 15.28 14 18 C13.01 17.67 12.02 17.34 11 17 C11 17.66 11 18.32 11 19 C10.01 19.33 9.02 19.66 8 20 C8.289 19.01 8.577 18.02 8.875 17 C9.273 14.352 9.132 13.243 7.836 10.859 C5.817 8.175 3.74 5.699 1.297 3.391 C0 2 0 2 0 0 Z " fill="#316778" transform="translate(180,234)"/>
<path d="M0 0 C5.415 0.873 9.34 3.226 14 6 C14.767 6.452 15.534 6.905 16.324 7.371 C21.86 10.721 21.86 10.721 23 13 C19.11 12.425 16.441 11.28 13.125 9.188 C10.095 7.299 7.07 5.462 3.938 3.75 C1 2 1 2 0 0 Z M3 5 C3.99 5.33 4.98 5.66 6 6 C5.01 6 4.02 6 3 6 C3 5.67 3 5.34 3 5 Z M10 9 C10.99 9.33 11.98 9.66 13 10 C12.01 10 11.02 10 10 10 C10 9.67 10 9.34 10 9 Z " fill="#7096A1" transform="translate(138,300)"/>
<path d="M0 0 C-2.753 2.181 -5.455 3.81 -8.625 5.312 C-13.279 7.57 -17.619 10.166 -21.969 12.961 C-22.639 13.304 -23.309 13.647 -24 14 C-24.66 13.67 -25.32 13.34 -26 13 C-22.365 9.834 -18.567 7.568 -14.344 5.309 C-11.38 3.654 -8.603 1.766 -5.824 -0.18 C-3.501 -1.225 -2.351 -0.841 0 0 Z " fill="#497988" transform="translate(173,184)"/>
<path d="M0 0 C0.99 0.33 1.98 0.66 3 1 C2.01 1 1.02 1 0 1 C0 0.67 0 0.34 0 0 Z M3 2 C8.331 2.646 12.352 5.382 16.828 8.117 C20.208 10.131 23.075 11.524 27 12 C26.361 12.124 25.721 12.248 25.062 12.375 C24.382 12.581 23.701 12.787 23 13 C22.67 13.66 22.34 14.32 22 15 C21.495 14.702 20.991 14.405 20.471 14.098 C18.19 12.752 15.907 11.407 13.625 10.062 C12.831 9.594 12.037 9.125 11.219 8.643 C10.458 8.195 9.698 7.747 8.914 7.285 C8.212 6.871 7.511 6.458 6.788 6.031 C5.547 5.315 4.281 4.641 3 4 C3 3.34 3 2.68 3 2 Z " fill="#D5E0E3" transform="translate(208,202)"/>
<path d="M0 0 C2.375 0.312 2.375 0.312 5 1 C5.66 1.99 6.32 2.98 7 4 C4.625 3.688 4.625 3.688 2 3 C1.34 2.01 0.68 1.02 0 0 Z M18 0 C19.32 0.66 20.64 1.32 22 2 C20.45 2.897 18.884 3.767 17.312 4.625 C16.442 5.112 15.572 5.6 14.676 6.102 C12 7 12 7 9.168 6.148 C8.453 5.769 7.737 5.39 7 5 C7.99 4.67 8.98 4.34 10 4 C12.999 2.876 15.313 1.791 18 0 Z M22 2 C22.66 2.33 23.32 2.66 24 3 C23.01 3 22.02 3 21 3 C21.33 2.67 21.66 2.34 22 2 Z " fill="#4C7B8A" transform="translate(161,313)"/>
<path d="M0 0 C0.66 0.33 1.32 0.66 2 1 C2 1.66 2 2.32 2 3 C-0.012 4.438 -0.012 4.438 -2.688 6 C-3.558 6.516 -4.428 7.031 -5.324 7.562 C-7.836 8.912 -10.332 10 -13 11 C-13.66 10.34 -14.32 9.68 -15 9 C-14.252 8.602 -13.505 8.203 -12.734 7.793 C-11.75 7.263 -10.765 6.733 -9.75 6.188 C-8.775 5.665 -7.801 5.143 -6.797 4.605 C-4.366 3.21 -2.192 1.738 0 0 Z M2 1 C4 2 4 2 4 2 Z " fill="#D6E1E4" transform="translate(198,304)"/>
<path d="M0 0 C0.66 0.33 1.32 0.66 2 1 C2 1.66 2 2.32 2 3 C-4.625 7 -4.625 7 -8 7 C-8 6.34 -8 5.68 -8 5 C-6.32 3.676 -6.32 3.676 -4.125 2.312 C-3.406 1.855 -2.686 1.397 -1.945 0.926 C-1.303 0.62 -0.661 0.315 0 0 Z M-12 7 C-9.812 7.312 -9.812 7.312 -8 8 C-8.33 8.66 -8.66 9.32 -9 10 C-10.98 10 -12.96 10 -15 10 C-13.75 8.438 -13.75 8.438 -12 7 Z M-9 10 C-7 11 -7 11 -7 11 Z " fill="#BACCD2" transform="translate(142,196)"/>
<path d="M0 0 C0.66 0.33 1.32 0.66 2 1 C1.299 1.681 0.597 2.361 -0.125 3.062 C-2.814 5.729 -5.198 8.598 -7.57 11.547 C-9 13 -9 13 -12 14 C-10.601 9.473 -8.438 7.248 -4.875 4.188 C-3.965 3.397 -3.055 2.607 -2.117 1.793 C-1.069 0.905 -1.069 0.905 0 0 Z " fill="#2A6274" transform="translate(167,231)"/>
<path d="M0 0 C-5.625 4 -5.625 4 -9 4 C-9 3.34 -9 2.68 -9 2 C-3.375 -1.125 -3.375 -1.125 0 0 Z M-9 5 C-11.688 7.252 -13.646 8.882 -17 10 C-17 9.01 -17 8.02 -17 7 C-12.719 3.76 -12.719 3.76 -9 5 Z " fill="#4C7B8A" transform="translate(130,209)"/>
<path d="M0 0 C1.333 0.667 2.667 1.333 4 2 C5.547 2.712 5.547 2.712 7.125 3.438 C10 5 10 5 12 8 C7.245 7.424 4.03 5.449 0 3 C0 2.01 0 1.02 0 0 Z M-1 4 C-0.01 4.33 0.98 4.66 2 5 C1.01 5 0.02 5 -1 5 C-1 4.67 -1 4.34 -1 4 Z M6 8 C8 9 8 9 8 9 Z " fill="#6D939F" transform="translate(126,292)"/>
<path d="M0 0 C9.097 0.91 9.097 0.91 12 3 C12.33 3.99 12.66 4.98 13 6 C10.333 6 7.667 6 5 6 C5.33 5.34 5.66 4.68 6 4 C4.02 3.01 2.04 2.02 0 1 C0 0.67 0 0.34 0 0 Z " fill="#1C586B" transform="translate(163,226)"/>
<path d="M0 0 C-1.861 4.567 -5.037 7.886 -9.312 10.312 C-10.148 10.653 -10.148 10.653 -11 11 C-9.602 7.842 -7.948 5.677 -5.5 3.25 C-4.892 2.636 -4.283 2.023 -3.656 1.391 C-2 0 -2 0 0 0 Z " fill="#2B6374" transform="translate(189,254)"/>
<path d="M0 0 C1.087 0.018 2.173 0.036 3.293 0.055 C4.54 0.089 4.54 0.089 5.812 0.125 C2.219 2.094 -1.168 2.819 -5.164 3.562 C-7.394 4.004 -7.394 4.004 -9.188 6.125 C-9.847 6.125 -10.507 6.125 -11.188 6.125 C-8.751 0.503 -5.871 -0.126 0 0 Z " fill="#306778" transform="translate(161.1875,224.875)"/>
<path d="M0 0 C2 1 2 1 2 1 Z M0 2 C-1.621 3.172 -3.247 4.338 -4.875 5.5 C-5.78 6.15 -6.685 6.799 -7.617 7.469 C-10 9 -10 9 -12 9 C-12.33 8.01 -12.66 7.02 -13 6 C-11.402 5.134 -9.797 4.282 -8.188 3.438 C-7.294 2.962 -6.401 2.486 -5.48 1.996 C-3 1 -3 1 0 2 Z " fill="#D2DEE2" transform="translate(183,314)"/>
<path d="M0 0 C2.125 0.938 2.125 0.938 4 2 C2.125 2.625 2.125 2.625 0 3 C-0.66 2.34 -1.32 1.68 -2 1 C-1.34 0.67 -0.68 0.34 0 0 Z M8 2 C10 3 10 3 10 3 Z M4 3 C6.375 3.25 6.375 3.25 9 4 C10.312 6.062 10.312 6.062 11 8 C8.062 7.188 8.062 7.188 5 6 C4.67 5.01 4.34 4.02 4 3 Z " fill="#B9CBD1" transform="translate(130,297)"/>
<path d="M0 0 C1.431 2.862 0.6 4.934 0 8 C-0.99 7.67 -1.98 7.34 -3 7 C-3 7.66 -3 8.32 -3 9 C-3.99 9.33 -4.98 9.66 -6 10 C-5.67 7.03 -5.34 4.06 -5 1 C-4.01 1 -3.02 1 -2 1 C-1.34 0.67 -0.68 0.34 0 0 Z " fill="#245E70" transform="translate(194,244)"/>
<path d="M0 0 C2.64 0.99 5.28 1.98 8 3 C8 3.66 8 4.32 8 5 C8.99 5.33 9.98 5.66 11 6 C8 7 8 7 5.738 6.004 C4.938 5.528 4.137 5.053 3.312 4.562 C2.504 4.089 1.696 3.616 0.863 3.129 C0.248 2.756 -0.366 2.384 -1 2 C-0.67 1.34 -0.34 0.68 0 0 Z M7 1 C8.98 1.99 8.98 1.99 11 3 C9.68 2.67 8.36 2.34 7 2 C7 1.67 7 1.34 7 1 Z " fill="#608A97" transform="translate(173,184)"/>
<path d="M0 0 C2 1 2 1 2 1 Z M2 1 C4 2 4 2 4 2 Z M4 2 C7.27 2.564 8.826 3.5 11 6 C8.69 5.34 6.38 4.68 4 4 C4 3.34 4 2.68 4 2 Z M11 6 C14.27 6.564 15.826 7.5 18 10 C13.25 9.125 13.25 9.125 11 8 C11 7.34 11 6.68 11 6 Z " fill="#E2E9EC" transform="translate(170,181)"/>
<path d="M0 0 C3.791 1.45 7.387 3.152 11 5 C11 5.99 11 6.98 11 8 C9.68 7.67 8.36 7.34 7 7 C7 6.34 7 5.68 7 5 C6.216 4.918 5.433 4.835 4.625 4.75 C2 4 2 4 0.688 1.938 C0.461 1.298 0.234 0.659 0 0 Z M7 1 C7.99 1.33 8.98 1.66 10 2 C9.01 2 8.02 2 7 2 C7 1.67 7 1.34 7 1 Z " fill="#C6D5D9" transform="translate(160,314)"/>
<path d="M0 0 C1.65 0 3.3 0 5 0 C5.625 1.875 5.625 1.875 6 4 C5.34 4.66 4.68 5.32 4 6 C1.875 5.625 1.875 5.625 0 5 C0 3.35 0 1.7 0 0 Z " fill="#205B6D" transform="translate(170,246)"/>
<path d="M0 0 C5.501 0.413 9.762 2.547 14 6 C14 6.66 14 7.32 14 8 C9.028 6.236 4.566 3.606 0 1 C0 0.67 0 0.34 0 0 Z " fill="#517F8D" transform="translate(216,210)"/>
<path d="M0 0 C1.32 0.66 2.64 1.32 4 2 C3.312 4.438 3.312 4.438 2 7 C-2.035 8.614 -5.811 7.739 -10 7 C-10 6.67 -10 6.34 -10 6 C-9.374 5.951 -8.747 5.902 -8.102 5.852 C-7.284 5.777 -6.467 5.702 -5.625 5.625 C-4.813 5.555 -4.001 5.486 -3.164 5.414 C-0.797 5.171 -0.797 5.171 1 3 C0.34 2.34 -0.32 1.68 -1 1 C-0.67 0.67 -0.34 0.34 0 0 Z " fill="#507E8C" transform="translate(167,264)"/>
<path d="M0 0 C0.66 0 1.32 0 2 0 C2.286 7.429 2.286 7.429 0 11 C-0.33 11 -0.66 11 -1 11 C-1.027 9.542 -1.046 8.083 -1.062 6.625 C-1.074 5.813 -1.086 5.001 -1.098 4.164 C-1 2 -1 2 0 0 Z " fill="#3B6F7F" transform="translate(195,233)"/>
<path d="M0 0 C4 1 4 1 4 1 Z M4 1 C6.25 0.688 6.25 0.688 9 1 C11.312 3.5 11.312 3.5 13 6 C12.67 6.66 12.34 7.32 12 8 C6.25 3.25 6.25 3.25 4 1 Z " fill="#235D6F" transform="translate(183,225)"/>
<path d="M0 0 C0.66 0.33 1.32 0.66 2 1 C2 1.66 2 2.32 2 3 C0.711 3.672 -0.581 4.337 -1.875 5 C-2.594 5.371 -3.314 5.743 -4.055 6.125 C-6 7 -6 7 -8 7 C-8 6.34 -8 5.68 -8 5 C-6.32 3.676 -6.32 3.676 -4.125 2.312 C-3.406 1.855 -2.686 1.397 -1.945 0.926 C-1.303 0.62 -0.661 0.315 0 0 Z M2 1 C4 2 4 2 4 2 Z " fill="#4B7A89" transform="translate(201,300)"/>
<path d="M0 0 C0.99 0.33 1.98 0.66 3 1 C2.01 1 1.02 1 0 1 C0 0.67 0 0.34 0 0 Z M3 2 C5.375 2.312 5.375 2.312 8 3 C8.66 3.99 9.32 4.98 10 6 C7.03 5.505 7.03 5.505 4 5 C3.67 4.01 3.34 3.02 3 2 Z M10 6 C10.99 6 11.98 6 13 6 C13 6.66 13 7.32 13 8 C12.01 7.67 11.02 7.34 10 7 C10 6.67 10 6.34 10 6 Z " fill="#D9E3E6" transform="translate(140,303)"/>
<path d="M0 0 C2.438 0.375 2.438 0.375 5 1 C5.33 1.66 5.66 2.32 6 3 C4.02 2.34 2.04 1.68 0 1 C0 0.67 0 0.34 0 0 Z M-2 1 C-0.68 1.66 0.64 2.32 2 3 C-0.97 3.66 -3.94 4.32 -7 5 C-4 2 -4 2 -2 1 Z M2 3 C4 4 4 4 4 4 Z " fill="#A1BAC1" transform="translate(170,180)"/>
<path d="M0 0 C0.99 0.33 1.98 0.66 3 1 C-0.509 4.096 -3.492 5.742 -8 7 C-5.422 4.352 -3.084 2.056 0 0 Z " fill="#54818F" transform="translate(155,191)"/>
<path d="M0 0 C0.33 0 0.66 0 1 0 C1 2.31 1 4.62 1 7 C0.67 7 0.34 7 0 7 C0 4.69 0 2.38 0 0 Z M-1 7 C-0.67 7.99 -0.34 8.98 0 10 C-1.32 11.32 -2.64 12.64 -4 14 C-4.66 13.67 -5.32 13.34 -6 13 C-4.35 11.02 -2.7 9.04 -1 7 Z " fill="#185568" transform="translate(195,258)"/>
<path d="M0 0 C6.523 1.477 6.523 1.477 8.938 4.125 C9.288 4.744 9.639 5.363 10 6 C6.059 5.437 3.249 4.321 0 2 C0 1.34 0 0.68 0 0 Z " fill="#5A8593" transform="translate(151,307)"/>
<path d="M0 0 C5.445 1.485 5.445 1.485 11 3 C9.68 3.33 8.36 3.66 7 4 C6.67 4.66 6.34 5.32 6 6 C3.962 4.726 1.961 3.389 0 2 C0 1.34 0 0.68 0 0 Z " fill="#C5D4D9" transform="translate(224,211)"/>
<path d="M0 0 C0.33 0.66 0.66 1.32 1 2 C-1.812 4.062 -1.812 4.062 -5 6 C-5.99 5.67 -6.98 5.34 -8 5 C-5.472 2.201 -3.796 0.542 0 0 Z " fill="#D3DEE2" transform="translate(129,205)"/>
<path d="M0 0 C0.66 0.33 1.32 0.66 2 1 C-3.625 5 -3.625 5 -7 5 C-7 4.34 -7 3.68 -7 3 C-4.696 1.933 -2.36 0.936 0 0 Z M-9 5 C-8.34 5.33 -7.68 5.66 -7 6 C-7.99 6 -8.98 6 -10 6 C-9.67 5.67 -9.34 5.34 -9 5 Z " fill="#DBE4E7" transform="translate(153,191)"/>
<path d="M0 0 C0.66 0.66 1.32 1.32 2 2 C-1.96 3.98 -1.96 3.98 -6 6 C-6 5.01 -6 4.02 -6 3 C-4.02 2.01 -2.04 1.02 0 0 Z " fill="#C0D0D6" transform="translate(230,286)"/>
<path d="M0 0 C3.786 0.541 5.554 2.117 8 5 C8 5.66 8 6.32 8 7 C4.205 5.509 2.39 3.243 0 0 Z " fill="#1E596C" transform="translate(159,258)"/>
<path d="M0 0 C0 0.99 0 1.98 0 3 C-5.257 7 -5.257 7 -8 7 C-8 6.34 -8 5.68 -8 5 C-6.25 3.711 -6.25 3.711 -4 2.375 C-3.257 1.929 -2.515 1.483 -1.75 1.023 C-1.173 0.686 -0.595 0.348 0 0 Z " fill="#CDDADF" transform="translate(223,290)"/>
<path d="M0 0 C0.99 0.33 1.98 0.66 3 1 C0.188 3.062 0.188 3.062 -3 5 C-3.99 4.67 -4.98 4.34 -6 4 C-3.188 1.938 -3.188 1.938 0 0 Z " fill="#447685" transform="translate(209,296)"/>
<path d="M0 0 C1.32 0.66 2.64 1.32 4 2 C2.35 2.66 0.7 3.32 -1 4 C-1.66 3.34 -2.32 2.68 -3 2 C-2.01 1.34 -1.02 0.68 0 0 Z M4 2 C4.66 2.33 5.32 2.66 6 3 C5.01 3 4.02 3 3 3 C3.33 2.67 3.66 2.34 4 2 Z " fill="#7499A4" transform="translate(179,313)"/>
<path d="M0 0 C1.32 0.33 2.64 0.66 4 1 C2.68 1.33 1.36 1.66 0 2 C0 1.34 0 0.68 0 0 Z M0 2 C0 2.66 0 3.32 0 4 C-0.99 4.33 -1.98 4.66 -3 5 C-3.66 4.34 -4.32 3.68 -5 3 C-3 2 -3 2 0 2 Z " fill="#568391" transform="translate(133,204)"/>
<path d="M0 0 C4.75 1.875 4.75 1.875 7 3 C7 3.66 7 4.32 7 5 C4.062 4.188 4.062 4.188 1 3 C0.67 2.01 0.34 1.02 0 0 Z " fill="#568390" transform="translate(195,197)"/>
<path d="M0 0 C2.438 0.812 2.438 0.812 5 2 C5.33 2.99 5.66 3.98 6 5 C3.085 3.926 1.222 3.222 -1 1 C-0.67 0.67 -0.34 0.34 0 0 Z " fill="#C8D7DB" transform="translate(189,191)"/>
<path d="M0 0 C1.32 0.66 2.64 1.32 4 2 C1.03 2.66 -1.94 3.32 -5 4 C-2 1 -2 1 0 0 Z " fill="#AEC4CA" transform="translate(156,188)"/>
<path d="M0 0 C2.475 0.495 2.475 0.495 5 1 C5.33 1.99 5.66 2.98 6 4 C1.125 2.25 1.125 2.25 0 0 Z " fill="#608A97" transform="translate(161,313)"/>
<path d="M0 0 C3.875 1.75 3.875 1.75 5 4 C3.35 3.67 1.7 3.34 0 3 C0 2.01 0 1.02 0 0 Z M-1 4 C1 5 1 5 1 5 Z " fill="#759AA5" transform="translate(133,296)"/>
<path d="M0 0 C4.875 1.75 4.875 1.75 6 4 C1.25 3.25 1.25 3.25 -1 1 C-0.67 0.67 -0.34 0.34 0 0 Z " fill="#D7E1E4" transform="translate(182,187)"/>
<path d="M0 0 C0.99 0.33 1.98 0.66 3 1 C2.34 2.32 1.68 3.64 1 5 C0.34 5 -0.32 5 -1 5 C-0.67 3.35 -0.34 1.7 0 0 Z " fill="#53808E" transform="translate(150,251)"/>
<path d="M0 0 C0.66 0.33 1.32 0.66 2 1 C2 1.66 2 2.32 2 3 C0.35 3.66 -1.3 4.32 -3 5 C-1.125 1.125 -1.125 1.125 0 0 Z " fill="#D1DDE1" transform="translate(113,213)"/>
<path d="M0 0 C0.99 0.33 1.98 0.66 3 1 C2.01 1 1.02 1 0 1 C0 0.67 0 0.34 0 0 Z M3 2 C5.475 2.495 5.475 2.495 8 3 C6.515 3.99 6.515 3.99 5 5 C4.34 4.67 3.68 4.34 3 4 C3 3.34 3 2.68 3 2 Z " fill="#DAE3E6" transform="translate(208,202)"/>
<path d="M0 0 C2 1 2 1 2 1 Z M7 -1 C7.66 -0.34 8.32 0.32 9 1 C7.02 1.99 7.02 1.99 5 3 C4.01 2.34 3.02 1.68 2 1 C3.65 0.34 5.3 -0.32 7 -1 Z " fill="#6C939F" transform="translate(132,202)"/>
<path d="M0 0 C2.475 0.495 2.475 0.495 5 1 C5 1.99 5 2.98 5 4 C2.525 3.01 2.525 3.01 0 2 C0 1.34 0 0.68 0 0 Z " fill="#CBD9DD" transform="translate(204,200)"/>
<path d="M0 0 C-1 2 -1 2 -2.938 2.75 C-3.958 2.874 -3.958 2.874 -5 3 C-5.66 2.34 -6.32 1.68 -7 1 C-4.537 -0.231 -2.72 -0.072 0 0 Z " fill="#B4C8CE" transform="translate(190,312)"/>
<path d="M0 0 C0.66 0.33 1.32 0.66 2 1 C2 1.66 2 2.32 2 3 C1.01 3.33 0.02 3.66 -1 4 C-1.66 3.34 -2.32 2.68 -3 2 C-2.01 1.34 -1.02 0.68 0 0 Z M2 1 C4 2 4 2 4 2 Z " fill="#B6C9CF" transform="translate(198,304)"/>
<path d="M0 0 C0.66 0.33 1.32 0.66 2 1 C2 1.66 2 2.32 2 3 C1.01 3.33 0.02 3.66 -1 4 C-1.66 3.34 -2.32 2.68 -3 2 C-2.01 1.34 -1.02 0.68 0 0 Z M2 1 C4 2 4 2 4 2 Z " fill="#6C939F" transform="translate(201,300)"/>
<path d="M0 0 C0.66 0.33 1.32 0.66 2 1 C2 1.66 2 2.32 2 3 C1.01 3.33 0.02 3.66 -1 4 C-1.66 3.34 -2.32 2.68 -3 2 C-2.01 1.34 -1.02 0.68 0 0 Z M2 1 C4 2 4 2 4 2 Z " fill="#6B929E" transform="translate(213,293)"/>
<path d="M0 0 C0.99 0.33 1.98 0.66 3 1 C2.34 1.66 1.68 2.32 1 3 C0.01 3 -0.98 3 -2 3 C-2 2.34 -2 1.68 -2 1 C-1.34 0.67 -0.68 0.34 0 0 Z " fill="#417483" transform="translate(217,291)"/>
<path d="M0 0 C1.32 0.66 2.64 1.32 4 2 C3.67 2.99 3.34 3.98 3 5 C1 4 1 4 -1 1 C-0.67 0.67 -0.34 0.34 0 0 Z " fill="#477786" transform="translate(167,264)"/>
<path d="M0 0 C-3 2 -3 2 -6 2 C-6 1.34 -6 0.68 -6 0 C-3.509 -1.245 -2.589 -0.777 0 0 Z " fill="#4B7B8A" transform="translate(173,184)"/>
<path d="M0 0 C3.875 1.75 3.875 1.75 5 4 C3.062 3.688 3.062 3.688 1 3 C0.67 2.01 0.34 1.02 0 0 Z " fill="#225C6F" transform="translate(156,254)"/>
<path d="M0 0 C3 1 3 1 4.188 3.062 C4.456 3.702 4.724 4.341 5 5 C3.062 4.188 3.062 4.188 1 3 C0.67 2.01 0.34 1.02 0 0 Z " fill="#185568" transform="translate(180,234)"/>
<path d="M0 0 C1.32 0.66 2.64 1.32 4 2 C4 2.66 4 3.32 4 4 C2.02 3.34 0.04 2.68 -2 2 C-1.34 1.34 -0.68 0.68 0 0 Z " fill="#5F8996" transform="translate(191,194)"/>
<path d="M0 0 C1.65 0 3.3 0 5 0 C4.01 1.485 4.01 1.485 3 3 C2.34 3 1.68 3 1 3 C0.67 2.01 0.34 1.02 0 0 Z " fill="#D5E0E3" transform="translate(170,320)"/>
<path d="M0 0 C1.98 0.495 1.98 0.495 4 1 C2.35 1.66 0.7 2.32 -1 3 C-0.67 2.01 -0.34 1.02 0 0 Z " fill="#5A8593" transform="translate(174,316)"/>
<path d="M0 0 C2 1 2 1 2 1 Z M-3 1 C-2.01 1.33 -1.02 1.66 0 2 C-1.98 2.99 -1.98 2.99 -4 4 C-3.67 3.01 -3.34 2.02 -3 1 Z " fill="#E0E8EB" transform="translate(183,314)"/>
<path d="M0 0 C2.475 0.495 2.475 0.495 5 1 C4.67 1.66 4.34 2.32 4 3 C2.68 2.34 1.36 1.68 0 1 C0 0.67 0 0.34 0 0 Z " fill="#638C99" transform="translate(138,300)"/>
<path d="M0 0 C0.99 0.33 1.98 0.66 3 1 C3.33 1.99 3.66 2.98 4 4 C2.68 3.67 1.36 3.34 0 3 C0 2.01 0 1.02 0 0 Z " fill="#BFD0D5" transform="translate(137,301)"/>
<path d="M0 0 C1.32 0.99 2.64 1.98 4 3 C1.03 2.505 1.03 2.505 -2 2 C-1.34 1.34 -0.68 0.68 0 0 Z " fill="#588492" transform="translate(214,207)"/>
<path d="M0 0 C0.99 0.33 1.98 0.66 3 1 C1.515 1.99 1.515 1.99 0 3 C-0.66 2.34 -1.32 1.68 -2 1 C-1.34 0.67 -0.68 0.34 0 0 Z " fill="#C1D1D7" transform="translate(209,298)"/>
<path d="M0 0 C0.99 0.33 1.98 0.66 3 1 C2.67 1.99 2.34 2.98 2 4 C1.34 2.68 0.68 1.36 0 0 Z " fill="#306677" transform="translate(177,232)"/>
<path d="M0 0 C0.99 0.33 1.98 0.66 3 1 C3 1.66 3 2.32 3 3 C1.68 2.34 0.36 1.68 -1 1 C-0.67 0.67 -0.34 0.34 0 0 Z " fill="#658D9A" transform="translate(227,215)"/>
<path d="M0 0 C-0.33 0.99 -0.66 1.98 -1 3 C-1.99 2.34 -2.98 1.68 -4 1 C-2 0 -2 0 0 0 Z " fill="#5B8694" transform="translate(120,213)"/>
<path d="M0 0 C0.99 0.66 1.98 1.32 3 2 C2.01 2.33 1.02 2.66 0 3 C-0.66 2.34 -1.32 1.68 -2 1 C-1.34 0.67 -0.68 0.34 0 0 Z " fill="#6B929E" transform="translate(166,185)"/>
</svg>